<svg width="177" height="122" viewBox="0 0 177 122" fill="none" xmlns="http://www.w3.org/2000/svg">
<path d="M2.94815 73.1324V62.2233H7.25213C8.07955 62.2233 8.78445 62.3813 9.36683 62.6973C9.94922 63.0098 10.3931 63.4449 10.6985 64.0024C11.0075 64.5564 11.1619 65.1956 11.1619 65.92C11.1619 66.6444 11.0057 67.2836 10.6932 67.8376C10.3807 68.3916 9.92791 68.823 9.33487 69.132C8.74538 69.4409 8.03161 69.5954 7.19354 69.5954H4.45028V67.7471H6.82067C7.26456 67.7471 7.63033 67.6707 7.91797 67.518C8.20916 67.3618 8.42578 67.1469 8.56783 66.8735C8.71342 66.5965 8.78622 66.2787 8.78622 65.92C8.78622 65.5578 8.71342 65.2417 8.56783 64.9718C8.42578 64.6984 8.20916 64.4871 7.91797 64.338C7.62678 64.1853 7.25746 64.1089 6.81001 64.1089H5.25462V73.1324H2.94815Z" fill="white"/>
<path d="M22.9482 61V50.0909H25.2546V54.592H29.9368V50.0909H32.2379V61H29.9368V56.4936H25.2546V61H22.9482Z" fill="white"/>
<path d="M32.973 80.9131C32.973 82.1027 32.7475 83.1148 32.2965 83.9493C31.8491 84.7838 31.2383 85.4213 30.4641 85.8616C29.6935 86.2984 28.8271 86.5168 27.8647 86.5168C26.8952 86.5168 26.0252 86.2966 25.2546 85.8563C24.484 85.4159 23.875 84.7785 23.4276 83.944C22.9801 83.1095 22.7564 82.0992 22.7564 80.9131C22.7564 79.7235 22.9801 78.7114 23.4276 77.8769C23.875 77.0424 24.484 76.4067 25.2546 75.9699C26.0252 75.5296 26.8952 75.3094 27.8647 75.3094C28.8271 75.3094 29.6935 75.5296 30.4641 75.9699C31.2383 76.4067 31.8491 77.0424 32.2965 77.8769C32.7475 78.7114 32.973 79.7235 32.973 80.9131ZM30.6346 80.9131C30.6346 80.1425 30.5192 79.4926 30.2884 78.9635C30.0611 78.4344 29.7397 78.0331 29.3242 77.7597C28.9087 77.4863 28.4222 77.3495 27.8647 77.3495C27.3072 77.3495 26.8207 77.4863 26.4052 77.7597C25.9897 78.0331 25.6665 78.4344 25.4357 78.9635C25.2085 79.4926 25.0948 80.1425 25.0948 80.9131C25.0948 81.6837 25.2085 82.3336 25.4357 82.8627C25.6665 83.3918 25.9897 83.7931 26.4052 84.0665C26.8207 84.34 27.3072 84.4767 27.8647 84.4767C28.4222 84.4767 28.9087 84.34 29.3242 84.0665C29.7397 83.7931 30.0611 83.3918 30.2884 82.8627C30.5192 82.3336 30.6346 81.6837 30.6346 80.9131Z" fill="white"/>
<path d="M153.255 50.0909V61H150.948V50.0909H153.255Z" fill="white"/>
<path d="M146.948 86.3676V75.4586H154.171V77.3602H149.255V79.9596H153.692V81.8613H149.255V86.3676H146.948Z" fill="white"/>
<path d="M165.948 72.0294V61.1203H173.299V63.022H168.255V65.6214H172.921V67.523H168.255V70.1278H173.32V72.0294H165.948Z" fill="white"/>
<path d="M44.9482 73.1324V62.2233H52.299V64.1249H47.2546V66.7243H51.9208V68.626H47.2546V71.2307H52.3203V73.1324H44.9482Z" fill="white"/>
<path d="M89.0657 69.3397H91.0259L92.0114 70.6075L92.9808 71.7368L94.8079 74.0272H92.6559L91.3988 72.4825L90.7543 71.5663L89.0657 69.3397ZM94.973 67.6778C94.973 68.8674 94.7475 69.8795 94.2965 70.714C93.8491 71.5485 93.2383 72.186 92.4641 72.6263C91.6935 73.0631 90.8271 73.2815 89.8647 73.2815C88.8952 73.2815 88.0252 73.0613 87.2546 72.621C86.484 72.1806 85.875 71.5432 85.4276 70.7087C84.9801 69.8742 84.7564 68.8639 84.7564 67.6778C84.7564 66.4882 84.9801 65.4761 85.4276 64.6416C85.875 63.8071 86.484 63.1714 87.2546 62.7346C88.0252 62.2943 88.8952 62.0741 89.8647 62.0741C90.8271 62.0741 91.6935 62.2943 92.4641 62.7346C93.2383 63.1714 93.8491 63.8071 94.2965 64.6416C94.7475 65.4761 94.973 66.4882 94.973 67.6778ZM92.6346 67.6778C92.6346 66.9072 92.5192 66.2574 92.2884 65.7282C92.0611 65.1991 91.7397 64.7978 91.3242 64.5244C90.9087 64.251 90.4222 64.1142 89.8647 64.1142C89.3072 64.1142 88.8207 64.251 88.4052 64.5244C87.9897 64.7978 87.6665 65.1991 87.4357 65.7282C87.2084 66.2574 87.0948 66.9072 87.0948 67.6778C87.0948 68.4484 87.2084 69.0983 87.4357 69.6274C87.6665 70.1565 87.9897 70.5578 88.4052 70.8312C88.8207 71.1047 89.3072 71.2414 89.8647 71.2414C90.4222 71.2414 90.9087 71.1047 91.3242 70.8312C91.7397 70.5578 92.0611 70.1565 92.2884 69.6274C92.5192 69.0983 92.6346 68.4484 92.6346 67.6778Z" fill="white"/>
<path d="M112.686 50.0909H114.993V57.1754C114.993 57.9709 114.803 58.6669 114.423 59.2635C114.047 59.8601 113.519 60.3253 112.841 60.6591C112.163 60.9893 111.373 61.1545 110.471 61.1545C109.565 61.1545 108.773 60.9893 108.095 60.6591C107.417 60.3253 106.889 59.8601 106.513 59.2635C106.136 58.6669 105.948 57.9709 105.948 57.1754V50.0909H108.255V56.9783C108.255 57.3938 108.345 57.7631 108.526 58.0863C108.711 58.4094 108.97 58.6634 109.304 58.848C109.638 59.0327 110.027 59.125 110.471 59.125C110.918 59.125 111.307 59.0327 111.637 58.848C111.971 58.6634 112.228 58.4094 112.409 58.0863C112.594 57.7631 112.686 57.3938 112.686 56.9783V50.0909Z" fill="white"/>
<path d="M107.948 86.3676V75.4586H115.299V77.3602H110.255V79.9596H114.921V81.8613H110.255V84.466H115.32V86.3676H107.948Z" fill="white"/>
<path d="M128.948 73.1324V62.2233H131.255V71.2307H135.931V73.1324H128.948Z" fill="white"/>
<path d="M73.0728 50.0909V61H71.0806L66.3345 54.1339H66.2546V61H63.9482V50.0909H65.9723L70.6811 56.9517H70.777V50.0909H73.0728Z" fill="white"/>
<path d="M73.2546 75.4586V86.3676H70.9482V75.4586H73.2546Z" fill="white"/>
<path d="M3 118.752V115.732H7.30455C8.13207 115.732 8.83707 115.776 9.41953 115.864C10.002 115.95 10.4459 116.071 10.7514 116.225C11.0604 116.378 11.2149 116.555 11.2149 116.756C11.2149 116.956 11.0586 117.133 10.7461 117.287C10.4335 117.44 9.98069 117.559 9.38757 117.645C8.798 117.73 8.08413 117.773 7.24595 117.773H4.50233V117.262H6.87303C7.31698 117.262 7.6828 117.24 7.97048 117.198C8.26171 117.155 8.47836 117.095 8.62042 117.02C8.76604 116.943 8.83884 116.855 8.83884 116.756C8.83884 116.656 8.76604 116.568 8.62042 116.493C8.47836 116.418 8.26171 116.359 7.97048 116.318C7.67924 116.276 7.30988 116.254 6.86237 116.254H5.30677V118.752H3Z" fill="white"/>
<path d="M17.0638 118.752V115.732H19.3706V116.978H24.0533V115.732H26.3548V118.752H24.0533V117.505H19.3706V118.752H17.0638Z" fill="white"/>
<path d="M42.6334 117.242C42.6334 117.572 42.4079 117.852 41.9569 118.083C41.5094 118.314 40.8985 118.49 40.1242 118.612C39.3535 118.733 38.4869 118.794 37.5245 118.794C36.5549 118.794 35.6847 118.733 34.914 118.611C34.1433 118.489 33.5342 118.312 33.0867 118.081C32.6392 117.85 32.4155 117.571 32.4155 117.242C32.4155 116.913 32.6392 116.633 33.0867 116.402C33.5342 116.171 34.1433 115.995 34.914 115.874C35.6847 115.752 36.5549 115.691 37.5245 115.691C38.4869 115.691 39.3535 115.752 40.1242 115.874C40.8985 115.995 41.5094 116.171 41.9569 116.402C42.4079 116.633 42.6334 116.913 42.6334 117.242ZM40.2947 117.242C40.2947 117.029 40.1793 116.849 39.9484 116.703C39.7211 116.556 39.3997 116.445 38.9842 116.369C38.5686 116.294 38.0821 116.256 37.5245 116.256C36.9668 116.256 36.4803 116.294 36.0647 116.369C35.6492 116.445 35.326 116.556 35.0952 116.703C34.8679 116.849 34.7542 117.029 34.7542 117.242C34.7542 117.456 34.8679 117.636 35.0952 117.782C35.326 117.929 35.6492 118.04 36.0647 118.115C36.4803 118.191 36.9668 118.229 37.5245 118.229C38.0821 118.229 38.5686 118.191 38.9842 118.115C39.3997 118.04 39.7211 117.929 39.9484 117.782C40.1793 117.636 40.2947 117.456 40.2947 117.242Z" fill="white"/>
<path d="M48.6928 118.752V115.732H56.0446V116.259H50.9996V116.978H55.6664V117.505H50.9996V118.226H56.0659V118.752H48.6928Z" fill="white"/>
<path d="M71.355 115.732V118.752H69.3626L64.6158 116.852H64.5359V118.752H62.2292V115.732H64.2536L68.963 117.632H69.0589V115.732H71.355Z" fill="white"/>
<path d="M79.9182 115.732V118.752H77.6115V115.732H79.9182Z" fill="white"/>
<path d="M90.2848 117.702H92.2453L93.2309 118.053L94.2004 118.366L96.0277 119H93.8755L92.6182 118.572L91.9736 118.319L90.2848 117.702ZM96.1929 117.242C96.1929 117.572 95.9674 117.852 95.5163 118.083C95.0688 118.314 94.4579 118.49 93.6837 118.612C92.913 118.733 92.0464 118.794 91.0839 118.794C90.1143 118.794 89.2442 118.733 88.4735 118.611C87.7028 118.489 87.0937 118.312 86.6462 118.081C86.1987 117.85 85.9749 117.571 85.9749 117.242C85.9749 116.913 86.1987 116.633 86.6462 116.402C87.0937 116.171 87.7028 115.995 88.4735 115.874C89.2442 115.752 90.1143 115.691 91.0839 115.691C92.0464 115.691 92.913 115.752 93.6837 115.874C94.4579 115.995 95.0688 116.171 95.5163 116.402C95.9674 116.633 96.1929 116.913 96.1929 117.242ZM93.8542 117.242C93.8542 117.029 93.7387 116.849 93.5079 116.703C93.2806 116.556 92.9592 116.445 92.5436 116.369C92.1281 116.294 91.6415 116.256 91.0839 116.256C90.5263 116.256 90.0397 116.294 89.6242 116.369C89.2087 116.445 88.8855 116.556 88.6546 116.703C88.4273 116.849 88.3137 117.029 88.3137 117.242C88.3137 117.456 88.4273 117.636 88.6546 117.782C88.8855 117.929 89.2087 118.04 89.6242 118.115C90.0397 118.191 90.5263 118.229 91.0839 118.229C91.6415 118.229 92.1281 118.191 92.5436 118.115C92.9592 118.04 93.2806 117.929 93.5079 117.782C93.7387 117.636 93.8542 117.456 93.8542 117.242Z" fill="white"/>
<path d="M108.991 115.732H111.298V117.694C111.298 117.914 111.108 118.106 110.728 118.272C110.352 118.437 109.824 118.566 109.146 118.658C108.468 118.749 107.677 118.795 106.775 118.795C105.87 118.795 105.078 118.749 104.399 118.658C103.721 118.566 103.193 118.437 102.817 118.272C102.44 118.106 102.252 117.914 102.252 117.694V115.732H104.559V117.639C104.559 117.754 104.65 117.856 104.831 117.946C105.015 118.035 105.275 118.105 105.609 118.157C105.942 118.208 106.331 118.233 106.775 118.233C107.223 118.233 107.612 118.208 107.942 118.157C108.276 118.105 108.533 118.035 108.714 117.946C108.899 117.856 108.991 117.754 108.991 117.639V115.732Z" fill="white"/>
<path d="M117.547 118.752V115.732H124.898V116.259H119.853V116.978H124.52V117.505H119.853V118.226H124.92V118.752H117.547Z" fill="white"/>
<path d="M131.083 118.752V115.732H133.39V118.226H138.067V118.752H131.083Z" fill="white"/>
<path d="M146.252 115.732V118.752H143.945V115.732H146.252Z" fill="white"/>
<path d="M152.501 118.752V115.732H159.725V116.259H154.807V116.978H159.245V117.505H154.807V118.752H152.501Z" fill="white"/>
<path d="M165.627 118.752V115.732H172.979V116.259H167.934V116.978H172.6V117.505H167.934V118.226H173V118.752H165.627Z" fill="white"/>
</svg>
